<svg
  xmlns="http://www.w3.org/2000/svg"
  viewBox="0 0 1024 1024"
  role="img"
  aria-label="WordBrain app icon"
>
  <defs>
    <linearGradient id="bg" x1="118" y1="96" x2="906" y2="928" gradientUnits="userSpaceOnUse">
      <stop offset="0" stop-color="#f8fff8" />
      <stop offset="0.48" stop-color="#dff8ff" />
      <stop offset="1" stop-color="#eef2ff" />
    </linearGradient>
    <linearGradient id="page" x1="512" y1="330" x2="512" y2="722" gradientUnits="userSpaceOnUse">
      <stop offset="0" stop-color="#ffffff" />
      <stop offset="1" stop-color="#f7fcff" />
    </linearGradient>
    <linearGradient id="sprout" x1="316" y1="274" x2="790" y2="655" gradientUnits="userSpaceOnUse">
      <stop offset="0" stop-color="#55dfb2" />
      <stop offset="0.58" stop-color="#2ec8c0" />
      <stop offset="1" stop-color="#2f9ed4" />
    </linearGradient>
    <filter id="softShadow" x="-20%" y="-20%" width="140%" height="150%">
      <feDropShadow dx="0" dy="24" stdDeviation="22" flood-color="#79aab5" flood-opacity="0.22" />
    </filter>
    <filter id="sproutShadow" x="-25%" y="-25%" width="150%" height="160%">
      <feDropShadow dx="0" dy="18" stdDeviation="18" flood-color="#38aeb9" flood-opacity="0.28" />
    </filter>
  </defs>

  <rect x="48" y="48" width="928" height="928" rx="224" fill="url(#bg)" />
  <path
    d="M168 354C244 229 384 160 552 172C662 180 758 218 840 286"
    fill="none"
    stroke="#ffffff"
    stroke-linecap="round"
    stroke-width="24"
    opacity="0.58"
  />
  <ellipse cx="512" cy="732" rx="294" ry="72" fill="#8bcbd2" opacity="0.18" />

  <g filter="url(#softShadow)" opacity="0.8">
    <path
      d="M258 342C337 312 428 324 512 382V724C423 666 336 653 251 684C230 692 210 676 214 654L239 374C240 360 247 349 258 342Z"
      fill="url(#page)"
      stroke="#83b6c8"
      stroke-width="20"
      stroke-linejoin="round"
    />
    <path
      d="M766 342C687 312 596 324 512 382V724C601 666 688 653 773 684C794 692 814 676 810 654L785 374C784 360 777 349 766 342Z"
      fill="url(#page)"
      stroke="#83b6c8"
      stroke-width="20"
      stroke-linejoin="round"
    />
    <path d="M512 382V724" stroke="#6ad7c4" stroke-width="30" stroke-linecap="round" />
    <path
      d="M512 404V694"
      stroke="#ffffff"
      stroke-width="12"
      stroke-linecap="round"
      opacity="0.86"
    />
  </g>

  <g fill="none" stroke="#78aabe" stroke-linecap="round" stroke-width="18" opacity="0.5">
    <path d="M304 448C360 437 415 445 466 472" />
    <path d="M292 524C354 510 414 519 466 548" />
    <path d="M720 448C664 437 609 445 558 472" />
    <path d="M732 524C670 510 610 519 558 548" />
  </g>

  <g fill="url(#sprout)" filter="url(#sproutShadow)">
    <path
      d="M510 646C488 548 509 456 570 354"
      fill="none"
      stroke="url(#sprout)"
      stroke-width="56"
      stroke-linecap="round"
    />
    <path d="M515 415C446 332 363 332 297 401C373 465 457 458 515 415Z" opacity="0.98" />
    <path d="M568 354C633 275 724 275 797 338C722 405 634 410 568 354Z" opacity="0.98" />
    <path
      d="M508 414C448 397 371 395 304 401"
      fill="none"
      stroke="#ecfffb"
      stroke-linecap="round"
      stroke-width="14"
      opacity="0.7"
    />
    <path
      d="M580 354C641 331 721 327 786 338"
      fill="none"
      stroke="#ecfffb"
      stroke-linecap="round"
      stroke-width="14"
      opacity="0.68"
    />
  </g>
  <circle cx="512" cy="646" r="50" fill="#ffb86b" />
  <circle cx="512" cy="646" r="20" fill="#fff9ed" />
</svg>
